<svg width="150" height="225" viewBox="0 0 150 225" fill="none" xmlns="http://www.w3.org/2000/svg">
<rect width="150" height="225" rx="1" fill="#00A4DB"/>
<rect x="53" y="84" width="52" height="50" rx="3" fill="#D9D9D9"/>
<path d="M88.9375 107.634C89.6042 108.019 89.6042 108.981 88.9375 109.366L73.1875 118.459C72.5208 118.844 71.6875 118.363 71.6875 117.593L71.6875 99.4067C71.6875 98.6369 72.5208 98.1558 73.1875 98.5407L88.9375 107.634Z" fill="#00A4DB" stroke="#00A4DB" stroke-width="3"/>
<rect x="45" y="92" width="4" height="50" rx="1" fill="#D9D9D9"/>
<path d="M46 139C46 138.448 46.4477 138 47 138H97C97.5523 138 98 138.448 98 139V141C98 141.552 97.5523 142 97 142H47C46.4477 142 46 141.552 46 141V139Z" fill="#D9D9D9"/>
</svg>
